:SAMPLES-PER-SECOND 30
:FULLY-SPECIFIED
:DEGREES
515
root  13.5818 36.1483 -8.07123 -20.7225 -66.9113 15.223
RightUpLeg  -11.3639 -16.7654 -24.848
RightLeg  48.0171 -6.69842 -8.23534
RightFoot  -11.6674 0.0116681 29.9767
RightToes  -5.28226e-011 1.30204e-014 -6.03759e-014
Spine  26.4265 -4.10633 -10.1858
Spine1  -2.65447 -8.44328 11.8326
HEad  -17.1182 -16.2375 0.904314
LeftShoulder1  2.02819 -4.29817 -19.6034
LeftArm  -4.09321 32.2422 -33.5921
LeftForeArm  -41.6556 -28.5626 -7.943
LeftHand  0.44266 6.80596 34.4652
RightShoulder  1.40429 1.98668 19.1596
RightArm  -38.6764 -20.9765 47.046
RightForeArm  -29.4759 48.611 14.6605
RightHand  -1.8358 0.846919 -33.4948
LeftUpLeg  -20.2614 10.851 27.2927
LeftLeg  20.8036 -1.23675 -0.202604
LeftFoot  30.1849 10.5391 -27.916
LeftToes  -2.75829e-010 5.07641e-011 -5.51782e-011
516
root  13.7983 35.0162 -7.88083 -22.5182 -65.4068 16.2528
RightUpLeg  -12.083 -17.1132 -27.3317
RightLeg  53.0857 -4.94598 -7.40059
RightFoot  -17.1416 1.51872 31.6356
RightToes  -5.28226e-011 1.30204e-014 -6.03759e-014
Spine  27.6845 -4.05238 -8.93745
Spine1  -1.46711 -7.88149 8.66361
HEad  -18.7419 -20.9938 4.89356
LeftShoulder1  1.5384 -2.88899 -17.1775
LeftArm  -2.628 26.2015 -34.2855
LeftForeArm  -38.7752 -28.4755 -7.84366
LeftHand  0.625099 7.34187 35.4383
RightShoulder  1.85679 3.27945 21.1069
RightArm  -40.6666 -30.8322 48.3946
RightForeArm  -26.1717 56.9077 19.278
RightHand  -1.52539 0.0187857 -32.0033
LeftUpLeg  -21.8532 4.62337 27.5819
LeftLeg  25.0813 -1.70539 -0.566586
LeftFoot  31.5976 7.91337 -20.3842
LeftToes  -2.75829e-010 5.07641e-011 -5.51782e-011
517
root  14.1805 33.9123 -7.064 -26.9887 -66.6396 20.3592
RightUpLeg  -14.6979 -16.8528 -31.0367
RightLeg  57.6536 -2.63953 -4.94056
RightFoot  -19.6212 2.24173 32.0527
RightToes  -5.28226e-011 1.30204e-014 -6.03759e-014
Spine  28.3293 -2.63953 0.375739
Spine1  -1.05931 -2.02078 -4.06115
HEad  -22.3642 -33.9618 10.1266
LeftShoulder1  0.786095 -0.277255 -14.0786
LeftArm  -10.8308 16.9735 -40.5058
LeftForeArm  -33.8826 -33.8752 -9.20694
LeftHand  0.428448 6.7411 34.896
RightShoulder  2.11011 3.97067 22.0128
RightArm  -39.2522 -41.3279 45.5364
RightForeArm  -26.5693 55.1885 18.4542
RightHand  -1.225 -0.3496 -28.0058
LeftUpLeg  -23.604 -1.26159 26.3164
LeftLeg  34.2975 -0.18337 0.327159
LeftFoot  26.5697 5.14319 -15.3598
LeftToes  -2.75829e-010 5.07641e-011 -5.51782e-011
518
root  14.5603 32.8868 -5.80561 -33.6364 -69.9725 26.5225
RightUpLeg  -18.2358 -15.3417 -34.4765
RightLeg  61.0602 -0.644124 -1.80433
RightFoot  -19.5259 2.19082 31.7155
RightToes  -5.28226e-011 1.30204e-014 -6.03759e-014
Spine  28.6225 -0.603263 10.9644
Spine1  1.02765 5.31609 -17.0654
HEad  -26.1558 -44.9789 13.1983
LeftShoulder1  0.737126 0.213243 -15.4916
LeftArm  -18.4193 10.6201 -45.7608
LeftForeArm  -31.4368 -42.816 -12.1105
LeftHand  0.261972 6.23531 33.9411
RightShoulder  2.0919 4.00731 21.5878
RightArm  -30.7181 -44.2297 37.6239
RightForeArm  -29.8377 42.3032 11.9615
RightHand  -1.41611 0.913262 -25.8058
LeftUpLeg  -23.8097 -2.77563 24.2679
LeftLeg  44.5456 4.23065 4.88966
LeftFoot  15.2964 3.98087 -17.4558
LeftToes  -2.75829e-010 5.07641e-011 -5.51782e-011
519
root  14.8127 32.005 -4.54518 -42.538 -74.0353 34.6108
RightUpLeg  -21.5492 -11.8346 -36.4207
RightLeg  63.0353 0.532691 0.560538
RightFoot  -19.1551 2.1145 32.0725
RightToes  -5.28226e-011 1.30204e-014 -6.03759e-014
Spine  29.2765 1.43116 15.9268
Spine1  2.91294 10.1643 -22.3199
HEad  -24.8502 -47.3033 10.2014
LeftShoulder1  0.95914 -0.386882 -18.0646
LeftArm  -23.8901 11.3642 -49.3199
LeftForeArm  -28.5491 -50.0033 -15.192
LeftHand  0.231437 6.16737 32.7615
RightShoulder  1.80275 3.47567 19.4021
RightArm  -19.4649 -38.3098 28.6407
RightForeArm  -34.1181 25.8974 7.26845
RightHand  -1.70249 1.70878 -27.5843
LeftUpLeg  -21.7939 -1.11007 23.1184
LeftLeg  51.7744 7.45656 10.4081
LeftFoot  3.13315 3.3041 -25.8121
LeftToes  -2.75829e-010 5.07641e-011 -5.51782e-011
520
root  14.9007 31.3183 -3.43948 -50.537 -77.147 41.7523
RightUpLeg  -23.5773 -7.57462 -37.2355
RightLeg  63.9514 0.79219 1.17777
RightFoot  -19.1608 2.22284 33.5334
RightToes  -5.28226e-011 1.30204e-014 -6.03759e-014
Spine  29.8347 2.35149 14.6755
Spine1  2.04209 10.2587 -20.6162
HEad  -18.9481 -41.8658 3.00301
LeftShoulder1  1.03339 -0.532034 -19.066
LeftArm  -28.571 17.9415 -51.6247
LeftForeArm  -26.5978 -53.551 -17.1243
LeftHand  0.291492 6.392 32.2178
RightShoulder  1.48375 2.76685 17.0932
RightArm  -18.5097 -30.0928 23.9603
RightForeArm  -34.3762 18.8305 6.52793
RightHand  -1.7035 1.23086 -29.4653
LeftUpLeg  -19.3147 0.767475 23.2872
LeftLeg  55.5372 7.5159 12.0619
LeftFoot  -5.86663 1.68051 -32.9298
LeftToes  -2.75829e-010 5.07641e-011 -5.51782e-011
521
root  14.82 30.844 -2.31772 -51.5338 -78.5845 42.0404
RightUpLeg  -23.4767 -4.67175 -37.9669
RightLeg  63.7767 0.349338 0.200275
RightFoot  -18.198 2.02448 34.8308
RightToes  -5.28226e-011 1.30204e-014 -6.03759e-014
Spine  29.0393 1.7278 10.6161
Spine1  0.531448 7.05724 -15.7556
HEad  -14.9755 -33.7227 -1.74628
LeftShoulder1  1.15056 -0.928808 -19.4386
LeftArm  -30.3779 24.655 -51.2764
LeftForeArm  -28.3879 -52.7379 -16.7672
LeftHand  0.452144 6.90207 33.2269
RightShoulder  1.35373 2.43644 16.1327
RightArm  -24.1642 -26.6442 24.4132
RightForeArm  -31.1442 27.8308 7.46147
RightHand  -1.69563 1.09512 -29.9185
LeftUpLeg  -18.1132 1.5625 23.7663
LeftLeg  58.1256 5.48675 9.95938
LeftFoot  -12.6208 -0.325682 -35.8106
LeftToes  -2.75829e-010 5.07641e-011 -5.51782e-011
522
root  14.6305 30.7035 -1.09842 -46.8602 -79.0179 36.5896
RightUpLeg  -21.1083 -2.94706 -38.7338
RightLeg  61.4556 -0.405335 -1.32423
RightFoot  -16.0503 1.39126 35.3716
RightToes  -5.28226e-011 1.30204e-014 -6.03759e-014
Spine  26.8697 0.240749 6.6067
Spine1  1.38374 3.37113 -10.9446
HEad  -14.3693 -26.9906 -2.28998
LeftShoulder1  1.35084 -1.69612 -19.4819
LeftArm  -28.732 26.6543 -48.7925
LeftForeArm  -31.4683 -47.3805 -14.0952
LeftHand  0.57141 7.19382 35.0926
RightShoulder  1.31466 2.24753 16.2069
RightArm  -28.345 -27.4239 28.462
RightForeArm  -25.4192 43.005 11.9305
RightHand  -1.56332 0.683391 -29.4696
LeftUpLeg  -17.4803 2.27678 23.776
LeftLeg  60.3796 3.28067 6.84228
LeftFoot  -18.1874 -2.13636 -36.4134
LeftToes  -2.75829e-010 5.07641e-011 -5.51782e-011
523
root  14.4408 31.0394 0.0520578 -43.5682 -79.7324 32.3265
RightUpLeg  -17.6122 -0.634452 -38.7236
RightLeg  56.703 -1.40261 -2.7276
RightFoot  -13.4499 0.600896 36.7773
RightToes  -5.28226e-011 1.30204e-014 -6.03759e-014
Spine  24.9806 -0.542926 2.44579
Spine1  3.05858 0.599203 -6.52782
HEad  -14.0229 -22.0761 -1.38282
LeftShoulder1  1.50751 -2.48269 -18.6278
LeftArm  -26.0739 24.9767 -47.1624
LeftForeArm  -32.2393 -39.1846 -10.793
LeftHand  0.638135 7.25832 37.4486
RightShoulder  1.25545 1.8249 16.9863
RightArm  -30.7532 -28.9284 33.7234
RightForeArm  -19.4053 52.4207 15.9662
RightHand  -1.45367 0.244909 -29.5204
LeftUpLeg  -15.7529 4.18077 23.6932
LeftLeg  60.9635 2.07057 4.67253
LeftFoot  -21.1432 -3.02969 -35.6835
LeftToes  -2.75829e-010 5.07641e-011 -5.51782e-011
